<?xml version="1.0" encoding="UTF-8" standalone="no"?>
<!-- Created with Inkscape (http://www.inkscape.org/) -->

<svg
   xmlns:dc="http://purl.org/dc/elements/1.1/"
   xmlns:cc="http://creativecommons.org/ns#"
   xmlns:rdf="http://www.w3.org/1999/02/22-rdf-syntax-ns#"
   xmlns:svg="http://www.w3.org/2000/svg"
   xmlns="http://www.w3.org/2000/svg"
   xmlns:sodipodi="http://sodipodi.sourceforge.net/DTD/sodipodi-0.dtd"
   xmlns:inkscape="http://www.inkscape.org/namespaces/inkscape"
   width="620"
   height="300"
   viewBox="0 0 164.04166 79.375002"
   version="1.1"
   id="svg13219"
   inkscape:version="0.92.1 r15371"
   sodipodi:docname="lup-splash.svg"
   inkscape:export-filename="/home/azzamsya/bitmap.png"
   inkscape:export-xdpi="28.127653"
   inkscape:export-ydpi="28.127653">
  <defs
     id="defs13213" />
  <sodipodi:namedview
     id="base"
     pagecolor="#ffffff"
     bordercolor="#666666"
     borderopacity="1.0"
     inkscape:pageopacity="0.0"
     inkscape:pageshadow="2"
     inkscape:zoom="0.9899495"
     inkscape:cx="0.74332195"
     inkscape:cy="163.1903"
     inkscape:document-units="mm"
     inkscape:current-layer="layer1"
     showgrid="false"
     showguides="true"
     inkscape:guide-bbox="true"
     inkscape:window-width="1920"
     inkscape:window-height="1008"
     inkscape:window-x="0"
     inkscape:window-y="44"
     inkscape:window-maximized="0"
     units="px">
    <sodipodi:guide
       position="-57.730217,68.420998"
       orientation="0,1"
       id="guide13843"
       inkscape:locked="false" />
  </sodipodi:namedview>
  <metadata
     id="metadata13216">
    <rdf:RDF>
      <cc:Work
         rdf:about="">
        <dc:format>image/svg+xml</dc:format>
        <dc:type
           rdf:resource="http://purl.org/dc/dcmitype/StillImage" />
        <dc:title />
      </cc:Work>
    </rdf:RDF>
  </metadata>
  <g
     inkscape:label="Layer 1"
     inkscape:groupmode="layer"
     id="layer1"
     transform="translate(0,-217.62498)">
    <path
       inkscape:connector-curvature="0"
       id="path68"
       style="fill:#5588ff;fill-opacity:1;fill-rule:nonzero;stroke:none;stroke-width:0.02522551"
       d="M 153.68553,296.68442 H 10.567973 c -5.6081661,0 -10.19667329,-2.20163 -10.19667329,-4.89254 v -68.6708 c 0,-2.69092 4.58850719,-4.89258 10.19667329,-4.89258 H 153.68553 c 5.60818,0 10.19667,2.20166 10.19667,4.89258 v 68.6708 c 0,2.69091 -4.58849,4.89254 -10.19667,4.89254" />
    <g
       id="g13837"
       transform="matrix(0.93477643,0,0,0.93477643,-73.915616,134.53395)">
      <path
         d="m 145.39157,150.63775 -10.47455,-10.45116 c -0.0527,-0.0529 -0.11493,-0.0916 -0.16898,-0.12928 -0.94132,1.44717 -2.06685,2.82374 -3.33665,4.09245 -1.2687,1.27002 -2.6466,2.39665 -4.10877,3.33907 0.0516,0.054 0.0902,0.11736 0.14318,0.16898 l 10.45336,10.47345 c 2.06928,2.06552 5.42931,2.06332 7.49131,0 2.06442,-2.06442 2.06552,-5.42689 0.001,-7.49351"
         style="fill:#ffffff;fill-opacity:1;fill-rule:nonzero;stroke:none;stroke-width:0.0220605"
         id="path1048"
         inkscape:connector-curvature="0" />
      <path
         d="m 99.884294,138.17732 c -7.04524,-7.04546 -7.043031,-18.51516 0.0011,-25.55356 7.045236,-7.04414 18.508096,-7.04414 25.551126,-0.004 7.04061,7.04193 7.03818,18.49883 0,25.55466 -7.04414,7.02296 -18.50589,7.04767 -25.552231,0.002 z m 30.033156,-30.04375 c -9.51579,-9.51337 -24.99608,-9.51337 -34.512978,0.002 -9.526386,9.51337 -9.527491,25.00513 -0.0071,34.52225 9.521758,9.51337 25.004258,9.51337 34.520048,-10e-4 9.5158,-9.5169 9.51447,-25.00888 0,-34.52335"
         style="fill:#ffffff;fill-opacity:1;fill-rule:nonzero;stroke:none;stroke-width:0.0220605"
         id="path1050"
         inkscape:connector-curvature="0" />
      <path
         d="m 104.90041,127.36348 c -0.51754,-2.12663 -2.64902,-5.07722 -4.44232,-4.137 -1.42114,0.72513 -1.020963,4.05118 -0.35076,6.01832 2.99493,8.94311 13.88752,10.83479 15.02011,9.70353 1.11361,-1.11383 -8.17562,-3.16877 -10.22703,-11.58485"
         style="fill:#ffffff;fill-opacity:1;fill-rule:nonzero;stroke:none;stroke-width:0.0220605"
         id="path1052"
         inkscape:connector-curvature="0" />
    </g>
    <text
       xml:space="preserve"
       style="font-style:normal;font-variant:normal;font-weight:normal;font-stretch:normal;font-size:4.04205608px;line-height:1.25;font-family:'Patrick Hand';-inkscape-font-specification:'Patrick Hand, Normal';font-variant-ligatures:normal;font-variant-caps:normal;font-variant-numeric:normal;text-align:start;letter-spacing:0px;word-spacing:0px;writing-mode:lr-tb;text-anchor:start;fill:#000000;fill-opacity:1;stroke:none;stroke-width:0.18947135"
       x="70.82872"
       y="258.86212"
       id="text13841"><tspan
         sodipodi:role="line"
         id="tspan13839"
         x="70.82872"
         y="258.86212"
         style="font-style:normal;font-variant:normal;font-weight:bold;font-stretch:normal;font-size:36.37850189px;font-family:'Quattrocento Sans';-inkscape-font-specification:'Quattrocento Sans Bold';letter-spacing:3.19352102px;word-spacing:17.20849991px;fill:#ffffff;stroke-width:0.18947135"
         dx="2.7199996">LUP</tspan></text>
  </g>
</svg>
